<?xml version="1.0" encoding="UTF-8" standalone="no"?>
<!DOCTYPE svg PUBLIC "-//W3C//DTD SVG 1.1//EN"
 "http://www.w3.org/Graphics/SVG/1.1/DTD/svg11.dtd">
<!-- Generated by graphviz version 2.43.0 (0)
 -->
<!-- Title: %3 Pages: 1 -->
<svg width="695pt" height="98pt"
 viewBox="0.00 0.00 695.48 98.00" xmlns="http://www.w3.org/2000/svg" xmlns:xlink="http://www.w3.org/1999/xlink">
<g id="graph0" class="graph" transform="scale(1 1) rotate(0) translate(4 94)">
<title>%3</title>
<polygon fill="white" stroke="transparent" points="-4,4 -4,-94 691.48,-94 691.48,4 -4,4"/>
<!-- E1 -->
<g id="node1" class="node">
<title>E1</title>
<ellipse fill="lightblue" stroke="black" cx="107.24" cy="-37" rx="107.48" ry="18"/>
<text text-anchor="middle" x="107.24" y="-33.3" font-family="Times,serif" font-size="14.00">OrderReceivedEvent</text>
</g>
<!-- I1 -->
<g id="node2" class="node">
<title>I1</title>
<polygon fill="lightyellow" stroke="black" points="427.98,-90 326.98,-90 326.98,-54 427.98,-54 427.98,-90"/>
<text text-anchor="middle" x="377.48" y="-68.3" font-family="Times,serif" font-size="14.00">VerifyOrder</text>
</g>
<!-- E1&#45;&gt;I1 -->
<g id="edge1" class="edge">
<title>E1&#45;&gt;I1</title>
<path fill="none" stroke="black" d="M192.38,-47.98C232.68,-53.24 280.02,-59.41 316.6,-64.19"/>
<polygon fill="black" stroke="black" points="316.25,-67.67 326.62,-65.49 317.15,-60.73 316.25,-67.67"/>
<text text-anchor="middle" x="259.48" y="-63.8" font-family="Times,serif" font-size="14.00">orderId</text>
</g>
<!-- I3 -->
<g id="node4" class="node">
<title>I3</title>
<polygon fill="lightyellow" stroke="black" points="450.48,-36 304.48,-36 304.48,0 450.48,0 450.48,-36"/>
<text text-anchor="middle" x="377.48" y="-14.3" font-family="Times,serif" font-size="14.00">SendConfirmation</text>
</g>
<!-- E1&#45;&gt;I3 -->
<g id="edge3" class="edge">
<title>E1&#45;&gt;I3</title>
<path fill="none" stroke="black" d="M203.87,-29.13C213.53,-28.39 223.2,-27.66 232.48,-27 252.47,-25.57 274.02,-24.16 294.21,-22.89"/>
<polygon fill="black" stroke="black" points="294.55,-26.37 304.31,-22.26 294.12,-19.39 294.55,-26.37"/>
<text text-anchor="middle" x="259.48" y="-30.8" font-family="Times,serif" font-size="14.00">orderId</text>
</g>
<!-- I2 -->
<g id="node3" class="node">
<title>I2</title>
<polygon fill="lightyellow" stroke="black" points="687.48,-90 553.48,-90 553.48,-54 687.48,-54 687.48,-90"/>
<text text-anchor="middle" x="620.48" y="-68.3" font-family="Times,serif" font-size="14.00">ProcessPayment</text>
</g>
<!-- I1&#45;&gt;I2 -->
<g id="edge2" class="edge">
<title>I1&#45;&gt;I2</title>
<path fill="none" stroke="black" d="M428.12,-72C461.25,-72 505.45,-72 543.03,-72"/>
<polygon fill="black" stroke="black" points="543.44,-75.5 553.44,-72 543.44,-68.5 543.44,-75.5"/>
<text text-anchor="middle" x="501.98" y="-75.8" font-family="Times,serif" font-size="14.00">orderInfo</text>
</g>
</g>
</svg>
